<?xml version="1.0" standalone="no"?>
<!DOCTYPE svg PUBLIC "-//W3C//DTD SVG 20010904//EN"
 "http://www.w3.org/TR/2001/REC-SVG-20010904/DTD/svg10.dtd">
<svg version="1.0" xmlns="http://www.w3.org/2000/svg"
 width="1920.000000pt" height="1080.000000pt" viewBox="0 0 1920.000000 1080.000000"
 preserveAspectRatio="xMidYMid meet">

<g transform="translate(0.000000,1080.000000) scale(0.100000,-0.100000)"
fill="#000000" stroke="none">
<path d="M10160 7515 c0 -8 17 -22 37 -30 78 -33 205 -47 493 -54 299 -8 322
-11 422 -62 49 -25 101 -26 96 -2 -6 31 -105 81 -205 104 -75 17 -113 21 -186
16 -120 -7 -429 9 -537 28 -106 19 -120 19 -120 0z"/>
<path d="M8580 7514 c-14 -3 -63 -11 -110 -19 -47 -9 -162 -20 -255 -25 -94
-5 -196 -16 -227 -24 -59 -16 -148 -54 -148 -64 0 -6 274 5 430 18 122 10 192
20 330 45 101 18 225 25 298 15 61 -8 64 4 11 35 -29 17 -54 20 -169 22 -74 0
-146 -1 -160 -3z"/>
<path d="M8432 7026 c-205 -39 -381 -117 -497 -220 l-40 -36 100 50 c55 28
138 65 185 84 l85 34 5 -57 c6 -64 24 -98 74 -136 69 -52 163 -41 239 29 57
52 47 79 -32 89 -53 7 -91 39 -75 64 24 38 136 53 245 33 62 -12 146 -50 189
-87 49 -41 34 -9 -19 40 -112 104 -282 146 -459 113z"/>
<path d="M10583 7020 c-93 -21 -184 -64 -260 -121 -62 -46 -69 -59 -15 -26 79
48 151 75 218 83 53 7 54 6 54 -18 0 -35 26 -106 55 -150 34 -52 90 -78 163
-78 53 0 66 5 121 41 60 40 81 64 81 92 0 22 -29 29 -53 12 -31 -22 -70 -18
-94 8 -27 29 -32 47 -22 75 7 20 15 22 72 22 122 0 277 -59 373 -142 l49 -43
-29 39 c-72 96 -177 161 -327 201 -116 31 -261 33 -386 5z"/>
<path d="M9020 5681 c-14 -3 -32 -10 -40 -16 -27 -17 -59 -66 -54 -80 8 -19
88 -34 164 -30 82 4 121 -12 157 -66 15 -23 54 -59 85 -80 83 -53 162 -72 289
-67 90 3 112 7 162 32 34 16 83 53 118 89 l59 61 75 -13 c79 -13 125 -9 163
15 65 41 -30 144 -133 144 -34 0 -112 -52 -187 -126 -103 -100 -120 -107 -259
-112 -155 -5 -215 11 -273 75 -107 117 -250 194 -326 174z"/>
<path d="M8763 4774 c-8 -22 2 -28 92 -57 300 -98 550 -132 912 -124 285 6
410 24 638 93 88 26 123 56 91 80 -13 9 -35 8 -104 -8 -510 -113 -1054 -111
-1517 7 -118 30 -104 28 -112 9z"/>
<path d="M9288 4359 c-11 -29 14 -48 95 -73 133 -41 230 -55 357 -51 168 5
300 47 300 96 0 28 -19 32 -85 14 -110 -28 -264 -39 -382 -27 -59 6 -133 18
-163 27 -93 26 -117 29 -122 14z"/>
<path d="M8540 3324 c0 -20 60 -100 113 -151 75 -73 151 -122 271 -178 180
-84 325 -106 731 -111 308 -3 372 2 520 47 93 28 214 90 298 151 84 63 187
175 187 205 0 38 -22 39 -49 2 -50 -66 -157 -172 -206 -203 -95 -60 -248 -109
-435 -138 -115 -18 -594 -18 -715 0 -141 21 -272 60 -370 110 -77 39 -106 62
-201 159 -62 62 -119 113 -128 113 -9 0 -16 -3 -16 -6z"/>
</g>
</svg>
